<?xml version="1.0" encoding="utf-8"?>
<!-- Generator: Adobe Illustrator 24.0.1, SVG Export Plug-In . SVG Version: 6.00 Build 0)  -->
<svg version="1.1" id="Layer_1" xmlns="http://www.w3.org/2000/svg" xmlns:xlink="http://www.w3.org/1999/xlink" x="0px" y="0px"
	 viewBox="0 0 1738 203" style="enable-background:new 0 0 1738 203;" xml:space="preserve">
<style type="text/css">
	.st0{fill:#FFFFFF;}
</style>
<g transform="translate(0.000000,203.000000) scale(0.100000,-0.100000)">
	<path class="st0" d="M3145,2005c-474-142-739-466-761-930c-10-198,31-395,111-542c145-265,371-429,699-509c106-25,115-26,370-21
		c234,3,269,6,336,26c193,58,354,154,477,285c78,84,169,225,160,248c-4,11-429,213-448,213c-4,0-28-28-54-63c-73-97-205-182-336-218
		c-89-24-291-24-378,0c-295,81-465,341-408,627c43,221,183,362,417,420c72,18,103,21,215,16c141-6,190-18,288-69
		c60-32,186-146,219-198l16-25l136,68l137,67l-28,52c-39,73-183,215-269,266c-165,98-337,137-569,129c-188-7-281-29-435-104
		c-104-51-124-66-210-152c-108-108-162-198-202-337c-20-67-23-102-23-234s3-167,23-234c37-127,95-227,188-325
		c173-182,401-271,695-271c273,0,462,59,631,196c58,48,106,101,96,108c-2,1-18,8-36,16c-33,13-34,12-80-32c-89-85-194-145-318-179
		c-111-30-363-38-488-15c-196,37-348,124-474,270c-109,126-155,266-156,466c0,188,41,315,150,459c62,83,138,142,249,197
		c130,64,223,85,390,91c303,11,513-67,684-253c34-37,60-72,59-76c-2-5-29-23-61-40l-58-31l-68,68c-115,115-228,172-396,201
		c-150,27-342,1-467-62c-164-82-260-189-314-349c-24-69-27-96-28-200c0-133,14-195,66-299c41-83,161-200,253-248
		c299-156,686-96,916,143l57,59l156-74c86-41,156-78,156-81c0-17-79-123-131-175C4041,93,3607-2,3181,106c-177,44-349,142-467,266
		c-114,118-185,249-226,416c-33,131-30,350,5,483c106,401,441,659,911,700c251,22,498-23,675-123c132-75,265-202,335-321l38-66
		l39,20c45,22,45,24-20,114c-124,174-311,316-517,393l-99,37l-315,2C3232,2030,3223,2029,3145,2005z"/>
	<path class="st0" d="M15099,2010l-156-5l434-494l433-494l-63-71c-103-116-771-880-786-899c-13-17-11-18,41-15l55,3l432,493l431,494
		l-89,101c-49,56-229,260-399,452c-170,193-309,351-308,351c0,1,94,4,207,8l206,6l303-335c167-184,307-335,311-335s144,148,310,330
		l303,330l266,1l265,1l34,39l33,39l-318-1h-319l-285-310c-156-170-287-308-291-307c-4,2-136,144-293,316l-286,312l-158-2
		C15326,2017,15185,2013,15099,2010z"/>
	<path class="st0" d="M695,1143C410,666,144,220,104,152L31,30h47h47l565,948l566,947l44,3l45,2l538-904c295-497,537-907,537-910
		s-81-6-180-6h-180l-61,104c-33,58-66,110-73,115c-9,8-168,10-512,9l-498-3l-23-40l-22-40l506-5l507-5l63-107l64-108h280h280l-15,28
		c-8,15-273,459-588,987l-574,960l-90,3l-91,3L695,1143z"/>
	<path class="st0" d="M5592,1958c-16-29-282-475-590-991L4442,30h46h47l540,907c297,498,552,926,567,950c26,40,31,43,70,43h43
		l460-772c253-424,497-834,542-910l82-138h-182h-183l-67,115l-68,115h-499c-548,0-512,4-545-61l-16-29h505h505l66-110l66-110h280
		h280l-23,39c-13,21-277,466-588,989l-565,951l-92,1h-91L5592,1958z"/>
	<path class="st0" d="M7130,1021V30h44h44v918c0,504,1,932,1,950l1,34l563-5c530-4,568-5,660-26c404-89,622-303,693-678
		c12-68,15-125,11-248c-5-190-24-274-93-415c-40-81-60-108-138-185c-126-124-222-178-401-224c-132-35-230-41-672-41h-423v706v705
		l458-4c399-3,465-6,517-21c130-38,235-116,289-216c39-72,56-152,56-268c0-235-100-383-311-460l-74-27l-362-3l-363-3l-2,438
		c-3,415-4,438-21,441c-10,2-29,1-43-2l-24-6V915V440l26-6c14-4,189-4,388-1c322,5,370,8,445,26c225,57,353,177,408,383
		c23,85,22,270-1,358c-42,155-133,266-271,331c-136,64-190,69-726,69h-469V815V30h488c517,0,590,5,747,51c333,98,560,335,629,656
		c25,117,27,142,27,287c-1,524-262,848-771,958c-89,20-135,21-712,25l-618,4V1021z"/>
	<path class="st0" d="M9420,1020V30h965h965l-2,243l-3,242l-717,3l-718,2v75v75h-40h-41l3-117l3-118l713-3l712-2V270V110h-880h-880
		v910v910h925h925v40v40h-965h-965V1020z"/>
	<path class="st0" d="M11550,1020V30h40h40v950v950h173h172l410-510c226-280,412-510,415-510s189,230,414,510l408,510h214h214v40v40
		h-234h-234l-388-485c-214-266-391-484-394-484s-180,218-395,485l-390,484h-232h-233V1020z"/>
	<path class="st0" d="M14302,1663l3-348l203-3l202-2V710V110h-65h-65v545v545h-140h-140V615V30h40h40v540v540h60h60V570V30h145h145
		l-2,682l-3,683l-202,3l-203,2v265v265h165h165v-165v-165h-65h-65v100v100h-40h-40v-140v-140h145h145v245v245h-245h-245L14302,1663z
		"/>
	<path class="st0" d="M11780,1820c0-14,1010-1240,1021-1240c4,0,176,209,381,465l373,466l3-741l2-740h245h245v885v885h-140h-140
		v-785V230h40h40v735v735h60h60V905V110h-165h-165l-2,823l-3,823l-414-523c-228-288-417-523-421-523c-3,0-214,252-469,560l-463,560
		h-44C11800,1830,11780,1825,11780,1820z"/>
	<path class="st0" d="M15412,1782c18-22,379-424,803-895l769-857h185h184l-20,23c-247,276-836,953-837,962c0,7,152,186,338,397
		l340,383l-65,6c-35,4-114,7-175,8l-111,1l-292-315c-160-173-291-319-291-323c0-5,12-20,28-34l27-26l288,314l288,314h69
		c39,0,70-4,70-8c0-5-142-167-315-360c-173-194-315-354-315-357s172-200,383-438c210-238,388-440,396-450c13-16,8-17-61-17h-75
		l-768,855l-769,855h-54h-54L15412,1782z"/>
	<path class="st0" d="M7344,1797c-3-8-4-28-2-44l3-28l515-5c492-6,519-7,594-28c249-69,415-234,473-469c26-107,24-325-5-428
		c-34-119-76-190-162-276c-91-90-175-136-325-176c-99-26-105-27-497-31l-398-4v-40v-40l413,5c379,4,419,6,495,26
		c297,76,476,243,554,516c30,107,33,350,5,464c-73,301-271,478-611,547C8276,1811,7353,1820,7344,1797z"/>
	<path class="st0" d="M9625,1798c-3-7-4-189-3-403l3-390l553-3l552-2v40v40h-252c-139,0-371,3-515,7l-263,6v314v313h780h780v-60v-60
		h-715h-715v-200v-200h515h515v-160V880h-620h-620V555V230h755h755v40v40h-715h-715v240v240l618,2l617,3v245v245l-512,3l-513,2v115
		v115h720h721l-3,143l-3,142l-858,3C9805,1810,9628,1808,9625,1798z"/>
	<path class="st0" d="M789,914C506,438,274,44,272,39s68-9,160-9h163l121,208l121,207l507,3c413,2,507,5,504,15
		c-8,32-542,937-549,930c-9-10-419-702-426-720c-4-10,61-13,306-13c171,0,311,2,311,5s-11,23-25,45l-25,40h-215h-214l141,238
		c77,130,143,240,147,244c5,6,393-643,409-684c2-4-203-8-455-8H795L671,325L547,110h-68c-38,0-69,2-69,5c0,6,893,1516,895,1513
		c1-2,183-311,405-688s412-697,422-713c16-22,27-27,60-27c31,0,39,3,34,15c-4,11-911,1550-921,1563C1304,1779,1072,1390,789,914z"/>
	<path class="st0" d="M5195,908c-280-473-511-865-513-869c-2-5,70-9,160-9l163,1l123,209l124,210h504c374,0,504,3,504,12
		c0,6-123,219-272,474c-206,349-276,460-284,451c-12-13-424-715-424-722c0-3,140-5,310-5c171,0,310,3,310,8c0,4-11,24-25,45l-26,37
		h-209c-116,0-210,2-210,4c0,6,270,469,278,478c5,5,394-643,410-683c2-5-202-10-454-11l-457-3l-125-212l-125-213h-69h-70l34,59
		c124,219,854,1451,860,1451c3,0,191-314,418-697c226-384,419-704,428-710c19-15,82-17,82-3s-921,1560-929,1560
		C5708,1770,5476,1382,5195,908z"/>
	<path class="st0" d="M11750,838V30h145h145v468v467l-45,50l-44,50l-1-477V110h-60h-60v653v652l23-28c151-185,943-1136,947-1136
		c3,0,149,182,325,404l320,404l3,62c2,50,1,60-10,51c-7-6-152-186-323-401c-170-215-312-390-315-390s-228,270-500,600
		c-272,329-507,614-522,632l-27,32L11750,838z"/>
	<path class="st0" d="M15639,514c-205-229-387-432-402-450l-28-34h183l183,1l230,260c127,143,241,273,254,290l24,30l-23,24
		c-13,14-27,25-31,25s-116-124-249-275l-241-275h-77h-76l25,28c14,15,156,173,315,351l288,324l36-40c19-22,178-198,354-391l318-352
		h55h55l-89,98c-49,53-226,248-393,432c-166,184-310,343-320,353C16015,929,15993,907,15639,514z"/>
</g>
</svg>
