<?xml version="1.0" encoding="utf-8"?>
<!-- Generator: Adobe Illustrator 24.0.1, SVG Export Plug-In . SVG Version: 6.00 Build 0)  -->
<svg version="1.1" id="Layer_1" xmlns="http://www.w3.org/2000/svg" xmlns:xlink="http://www.w3.org/1999/xlink" x="0px" y="0px"
	 viewBox="0 0 982 730" style="enable-background:new 0 0 982 730;" xml:space="preserve">
<style type="text/css">
	.st0{fill:#FFFFFF;}
</style>
<g transform="translate(0.000000,730.000000) scale(0.100000,-0.100000)">
	<path d="M0,3650C0,1231,3,0,10,0s10,1231,10,3650c0,2417-3,3650-10,3650S0,6067,0,3650z"/>
	<path class="st0" d="M4158,6828c-32-6-58-14-58-18c0-5-17-14-37-21c-21-6-42-18-46-25c-4-8-14-14-22-14s-19-9-25-20s-16-20-23-20
		c-13,0-67-53-67-65c0-4-10-18-22-31c-44-44-55-59-69-91c-8-18-16-33-20-33c-3,0-11-16-19-35s-17-35-21-35s-12-13-18-30
		c-5-16-14-30-18-30c-5,0-15-16-22-35s-16-35-20-35s-16-20-27-45c-10-25-21-45-25-45s-12-13-18-30c-5-16-14-30-18-30
		c-5,0-15-16-22-35s-16-35-20-35s-16-20-27-45c-10-25-21-45-25-45s-12-13-18-30c-5-16-14-30-20-30c-5,0-12-14-16-31s-13-33-21-36
		s-14-11-14-19s-8-22-18-32s-26-39-36-65s-21-47-26-47c-4,0-13-13-19-30c-5-16-14-30-18-30c-5,0-15-16-22-35s-16-35-20-35
		c-5,0-16-20-25-45c-10-25-21-45-26-45c-4,0-13-13-19-30c-5-16-14-30-20-30c-5,0-12-14-16-31s-13-33-20-35c-8-3-18-19-24-35
		c-5-16-14-29-19-29s-14-18-21-41c-7-22-18-42-26-45s-17-19-20-35c-4-16-12-32-19-36c-7-5-18-23-25-40c-8-18-17-33-21-33
		s-15-20-26-45c-10-25-21-45-25-45s-12-13-19-30c-7-16-16-30-19-30c-4,0-13-16-21-35s-17-35-21-35c-3,0-12-13-19-30
		c-7-16-15-30-19-30c-3,0-14-20-24-45c-11-25-22-45-26-45s-13-16-21-35s-17-35-22-35c-4,0-8-6-8-13s-8-22-18-33c-19-21-52-86-52-103
		c0-6-5-11-10-11c-6,0-16-12-23-27c-6-16-17-31-24-36c-6-4-14-21-18-37c-4-17-10-30-15-30c-4,0-13-13-20-30c-7-16-15-30-19-30
		s-15-20-25-45c-11-25-22-45-26-45s-13-15-21-32c-7-18-19-37-26-41s-13-14-13-21s-9-23-20-36s-23-34-26-47c-4-13-10-23-15-23
		s-16-18-25-40s-20-40-24-40c-5,0-14-16-20-35s-15-35-20-35c-4,0-13-15-21-32c-7-18-18-36-25-41c-7-4-15-21-19-38s-13-33-20-35
		c-8-3-18-19-24-35c-5-16-14-29-20-29c-5,0-12-13-16-30c-4-16-12-33-18-37c-7-5-18-20-24-35c-7-16-17-28-23-28c-5,0-10-5-10-11
		c0-17-33-82-52-103c-10-11-18-26-18-33s-4-13-8-13c-5,0-14-16-22-35s-17-35-20-35c-4,0-15-20-26-45c-10-25-21-45-25-45
		s-12-13-19-30c-7-16-16-30-19-30c-4,0-13-16-21-35s-17-35-21-35c-3,0-12-13-19-30c-7-16-15-30-19-30s-15-20-25-45
		c-11-25-23-45-27-45s-13-16-20-35s-17-35-22-35c-4,0-13-13-18-30c-6-16-15-30-19-30s-15-18-24-40s-20-40-25-40s-12-14-16-31
		s-13-33-20-35c-8-3-18-19-24-35c-5-16-14-29-20-29c-5,0-12-13-16-30c-4-16-12-33-19-37c-7-5-21-26-32-48c-10-22-21-42-24-45
		s-12-20-19-37c-8-18-17-33-21-33c-5,0-13-14-19-30c-5-17-14-30-18-30c-5,0-15-16-22-35s-16-35-20-35s-16-20-27-45
		c-10-25-21-45-25-45s-12-13-19-30c-7-16-16-30-19-30c-4,0-13-16-21-35s-17-35-20-35c-4,0-15-19-26-42c-10-24-24-47-31-51
		s-13-14-13-21s-9-23-20-36s-23-34-26-47c-4-13-10-23-16-23c-5,0-14-13-19-30c-6-16-15-30-19-30s-15-18-24-40s-20-40-25-40
		s-12-14-16-31s-13-33-20-35c-8-3-18-19-24-35c-5-16-14-29-20-29c-5,0-12-13-16-29c-3-15-15-38-25-49c-11-11-22-32-26-47
		s-12-29-19-32c-7-2-16-15-19-27s-15-33-26-46s-20-29-20-36s-6-17-13-21s-21-27-31-50c-11-24-22-43-26-43c-3,0-12-16-20-35
		s-17-35-21-35c-3,0-12-13-19-30c-7-16-15-30-19-30s-15-20-25-45c-11-25-22-45-26-45s-13-15-21-33c-7-17-19-36-26-40s-13-14-13-21
		s-9-23-20-36s-23-34-26-47c-4-13-10-23-15-23s-16-18-25-40s-20-40-25-40c-4,0-14-18-20-40c-7-22-16-40-21-40s-14-13-19-29
		c-6-16-16-32-24-35c-7-2-16-18-20-35s-11-31-16-31s-15-16-23-35s-19-35-24-35s-14-18-21-40c-6-22-16-40-21-40c-6,0-10-6-10-14
		c0-14,42-26,95-26c19,0,36-6,39-12c5-11,7-11,12,0c3,6,21,12,39,12c60,0,86,14,156,85c58,58,64,66,80,102c8,18,17,33,21,33
		c5,0,8,6,8,13s8,22,18,33c9,10,24,33,32,49c8,17,17,32,20,35s14,24,24,48c11,23,22,42,26,42c3,0,12,16,20,35s17,35,21,35
		c3,0,12,13,19,30c7,16,16,30,19,30c4,0,13,16,21,35s17,35,21,35s15,20,26,45c10,25,21,45,24,45c4,0,12,14,19,30c7,17,16,30,19,30
		c4,0,13,16,21,35s17,35,20,35c4,0,15,19,26,43c10,23,24,45,30,49c7,4,15,19,18,33c4,14,15,34,26,45s20,26,20,34s6,16,14,19
		s17,19,21,36s10,31,14,31c5,0,16,19,27,43c10,23,24,46,31,50s13,14,13,21s9,23,20,36s23,34,26,47c4,13,10,23,15,23s16,18,25,40
		s20,40,24,40s13,14,19,30c5,17,14,30,19,30s15,18,22,40s17,40,22,40s14,14,19,30c6,17,15,30,19,30s15,18,24,40s20,40,25,40
		s12,14,16,31s13,33,20,35c8,3,18,19,24,35c5,16,14,29,20,29c5,0,12,14,16,31s13,33,20,35c7,3,21,25,31,50c10,24,21,44,25,44
		s9,10,13,23c3,13,15,34,26,47s20,29,20,36s6,17,13,21s21,27,31,51c11,23,22,42,26,42c3,0,12,16,20,35s17,35,21,35c3,0,12,14,19,30
		c7,17,16,30,19,30c4,0,13,16,21,35s17,35,21,35s15,20,26,45c10,25,21,45,26,45c4,0,7,6,7,13s8,22,18,33c9,10,24,33,32,49
		c8,17,17,32,20,35s14,23,25,45s25,43,32,48c6,4,14,21,18,37c4,17,11,30,16,30c6,0,15,13,20,29c6,16,16,32,24,35c7,2,16,18,20,35
		s11,31,16,31s15,16,23,35s19,35,25,35c5,0,12,14,16,31s13,33,20,35c6,3,18,23,25,45c7,21,17,39,22,39c4,0,15,18,24,40s20,40,24,40
		s13,14,19,30c5,17,14,30,19,30c6,0,12,10,16,23c3,13,15,34,26,47s20,29,20,36s6,17,13,21s21,27,31,51c11,23,22,42,26,42
		c3,0,12,16,20,35s17,35,22,35c4,0,8,6,8,13s8,22,18,33c9,10,24,33,32,49c8,17,17,32,20,35s14,23,25,45s23,42,26,45s12,20,20,38
		c8,17,17,32,20,32c4,0,12,14,19,30c7,17,15,30,19,30s15,20,25,45c11,25,22,45,26,45s13,15,21,33c7,17,19,36,26,40s13,14,13,21
		s9,23,20,36s23,34,26,47c4,13,10,23,15,23s16,18,25,40s20,40,24,40s13,14,19,30c5,17,14,30,18,30c5,0,15,16,22,35s16,35,21,35
		s14,17,21,38c6,20,20,45,30,55c11,10,19,24,19,33c0,8,6,17,14,20s18,19,21,35c4,16,12,32,18,36c7,5,18,20,24,36c7,15,17,27,23,27
		c5,0,10,5,10,11c0,17,33,82,52,103c10,11,18,26,18,33s4,13,8,13c5,0,14,16,22,35s17,35,20,35c4,0,15,19,26,43c10,23,24,46,31,50
		s13,14,13,21s9,23,20,36s23,34,26,47c4,13,10,23,16,23c5,0,14,14,19,30c6,17,14,30,18,30s15,20,25,45c11,25,23,45,27,45
		s13,16,20,35s17,35,22,35c4,0,13,14,18,30c6,17,15,30,19,30s15,18,24,40s20,40,25,40s12,14,16,31s13,33,20,35c8,3,18,19,24,35
		c5,16,14,29,20,29c5,0,12,13,16,30c4,16,12,33,18,37c7,5,21,26,32,48s22,42,25,45s12,19,20,35c8,17,23,39,33,49c9,11,17,26,17,33
		s4,13,8,13s14,16,21,35s16,35,20,35s16,20,27,45c10,25,21,45,25,45s12,14,19,30c7,17,15,30,19,30c3,0,12,13,19,30
		c15,33,104,130,121,130c5,0,14,8,20,18c8,14,24,17,87,17c53,0,79-4,82-12c2-7,10-13,18-13c7,0,19-9,26-20s19-20,26-20s15-7,19-15
		c3-9,21-31,39-51c19-19,34-41,34-49s6-18,13-22s21-27,31-50c11-24,22-43,26-43c3,0,12-16,20-35s17-35,21-35c3,0,12-13,19-30
		c7-16,15-30,19-30c3,0,14-20,24-45c11-25,22-45,26-45s13-16,21-35s17-35,21-35c3,0,12-13,19-30c7-16,16-30,19-30c4,0,13-16,21-35
		s16-35,19-35s15-19,26-43c11-23,25-45,32-50c6-4,14-21,18-37c4-17,11-30,16-30c6,0,15-13,20-30c6-16,14-30,18-30s13-16,21-35
		s17-35,20-35c4,0,15-19,26-42c10-24,24-47,31-51s13-14,13-21s9-23,20-36s23-34,26-47c4-13,10-23,15-23s16-18,25-40s20-40,24-40
		s13-13,19-30c5-16,14-30,19-30s15-18,22-39c7-22,19-42,25-45c7-2,16-18,20-35s11-31,16-31c6,0,17-16,25-35s18-35,23-35s12-14,16-31
		s13-33,20-35c8-3,18-19,24-35c5-16,15-29,20-29c6,0,11-5,11-11c0-16,32-82,47-97c7-7,13-20,13-28s6-17,14-20s17-16,20-28
		s15-33,26-46s20-29,20-36s6-17,13-21s21-27,31-50c11-24,22-43,26-43c3,0,12-16,20-35s17-35,21-35c3,0,12-13,19-30c7-16,15-30,19-30
		s15-20,25-45c11-25,22-45,26-45c3,0,12-16,20-35s19-35,24-35c6,0,4-4-3-9c-12-8-11-13,10-30c13-11,27-20,30-21c3,0,11-16,19-35
		s16-35,20-35c3,0,14-20,24-44c10-25,24-47,31-50c7-2,16-18,20-35s11-31,16-31c6,0,15-13,20-29c6-16,16-32,24-35c7-2,16-18,20-35
		s10-31,14-31c5,0,16-19,27-42c10-24,24-47,31-51s13-14,13-21s9-23,20-36s23-34,26-47c4-13,10-23,15-23s16-18,25-40s20-40,24-40
		s13-13,19-30c5-16,14-30,18-30c5,0,15-16,22-35s16-35,21-35s15-18,21-40c7-22,16-40,20-40c5,0,15-16,23-35s19-35,25-35
		c5,0,12-13,16-30c4-16,12-33,18-37c7-5,18-20,24-35c7-16,17-28,23-28c5,0,10-5,10-11c0-15,32-81,46-97c7-6,16-21,19-32s10-20,15-20
		c4,0,10-10,14-23c3-13,15-34,26-47s20-29,20-36s6-17,13-21s21-27,31-50c11-24,22-43,26-43c3,0,12-16,20-35s17-35,21-35
		c3,0,12-13,19-30c7-16,15-30,19-30s15-20,25-45c11-25,22-45,26-45s13-15,21-32c7-18,15-35,18-38c4-3,13-18,21-35c8-16,23-39,33-49
		c9-11,17-26,17-33s4-13,8-13s16-20,26-45c11-25,23-45,27-45s13-16,20-35s17-35,22-35c4,0,13-13,18-30c6-16,14-30,19-30
		c4,0,13-15,21-32c7-18,18-36,24-40s17-25,25-48c7-22,17-40,22-40s14-13,19-30c6-16,15-30,19-30c5,0,14-16,21-35s17-35,21-35
		c5,0,15-18,24-40s20-40,24-40s13-13,19-30c5-16,14-30,20-30c5,0,12-14,16-31s13-33,21-36s19-23,25-44c7-21,16-39,20-39
		c5,0,15-16,23-35s19-35,25-35c5,0,12-13,16-30c4-16,12-33,19-37c7-5,18-23,25-40c8-18,17-33,21-33s15-20,26-45c10-25,21-45,25-45
		s12-13,19-30c7-16,15-30,19-30c3,0,13-15,20-32c8-18,21-39,28-46s13-20,13-27c0-8,6-18,13-22s21-27,31-50c11-24,22-43,26-43
		c3,0,12-16,20-35s17-35,22-35c4,0,8-6,8-13s8-22,18-33c17-18,52-85,52-98c0-3,9-15,20-26s20-27,20-35s4-15,8-15c5,0,15-18,22-39
		c7-22,19-42,26-45c8-3,14-12,14-21c0-14-57-16-575-13c-410,2-578,6-583,14c-4,6-17,14-28,18c-30,9-79,58-95,95c-8,17-17,31-20,31
		s-14,18-24,40s-21,40-26,40c-4,0-12,14-18,30c-5,17-14,30-18,30c-5,0-15,16-22,35s-16,35-21,35s-14,16-20,36c-7,20-20,44-30,54
		s-21,32-25,49s-10,31-15,31c-4,0-13,14-20,30c-7,17-16,30-20,30s-11,11-14,24c-3,14-12,31-19,38s-20,25-30,40c-10,16-24,28-31,28
		c-8,0-16,6-18,13c-4,9-346,12-1667,12c-1573,0-1663-1-1672-17c-6-10-15-18-21-18c-14,0-58-42-58-57c0-7-6-16-13-20
		c-8-4-22-29-32-56c-10-26-21-47-25-47s-11-16-17-35l-11-35h1645c1602,0,1733-2,1733-30c0-3,13-20,30-36c16-16,30-35,30-42
		s6-15,14-18c7-3,19-23,26-45c7-21,17-39,21-39s13-17,20-37c6-21,15-40,19-43s15-29,24-57c10-29,21-53,26-53c4,0,11-12,15-27
		c4-16,15-36,26-46c10-10,19-24,19-32s6-18,13-22c6-4,19-21,27-38c8-16,38-52,67-80c71-68,74-71,119-86c21-8,42-18,46-24
		c11-15,481-11,486,4c3,8,180,11,645,11c353,0,637,4,631,8s-17,24-25,44c-7,21-16,38-19,38c-4,0-13,18-20,40s-17,40-22,40
		s-14,14-19,30c-6,17-15,30-19,30s-15,18-24,40s-20,40-25,40s-11,10-15,23c-3,13-15,34-26,47s-20,29-20,36s-6,17-13,21s-19,23-26,41
		c-8,17-17,32-21,32s-15,20-26,45c-10,25-21,45-25,45s-12,14-19,30c-7,17-16,30-20,30c-5,0-11,14-15,31s-13,33-20,35
		c-7,3-21,25-31,50c-10,24-22,44-26,44s-8,6-8,13s-8,22-17,33c-10,10-25,33-33,49c-8,17-17,32-20,35s-12,19-20,35c-8,17-23,38-32,49
		c-9,10-20,32-23,47c-4,16-11,29-16,29c-6,0-15,14-20,30c-6,17-14,30-19,30c-4,0-13,15-21,33c-7,17-18,35-24,39s-17,25-25,48
		c-7,22-17,40-22,40s-14,14-19,30c-6,17-15,30-19,30c-5,0-14,16-21,35s-17,35-22,35c-4,0-13,14-18,30c-6,17-15,30-19,30
		s-15,18-24,40s-19,40-24,40c-4,0-14,16-21,35s-16,35-21,35c-4,0-13,14-19,30c-5,17-14,30-20,30c-5,0-12,13-16,29c-3,15-14,37-24,47
		c-9,11-24,34-31,51c-8,18-18,33-22,33c-5,0-8,6-8,13s-9,23-20,34c-10,12-22,33-26,47c-3,15-11,30-18,34c-6,4-20,26-30,50
		c-11,23-22,42-26,42c-3,0-12,16-20,35s-17,35-21,35c-3,0-12,14-19,30c-7,17-15,30-19,30s-15,20-25,45c-11,25-23,45-27,45
		s-13,16-20,35s-17,35-22,35c-4,0-13,14-18,30c-6,17-14,30-19,30c-4,0-14,15-21,33c-7,17-18,37-24,42c-7,6-18,26-25,45
		c-8,19-19,38-26,42c-6,4-15,19-18,33c-4,14-15,34-26,45s-20,26-20,34s-6,16-14,19s-17,19-21,36s-11,31-16,31s-15,16-23,35
		s-19,35-25,35c-5,0-12,13-16,30c-4,16-12,33-18,37c-7,5-18,20-24,36c-7,15-17,27-23,27c-5,0-10,5-10,11c0,16-32,82-47,97
		c-7,7-13,20-13,27c0,8-6,18-13,22s-19,23-26,41c-8,17-17,32-21,32c-5,0-13,14-19,30c-5,17-15,30-20,30c-17,0-13,27,4,34
		c8,3,15,10,15,16s25,37,55,68c117,122,155,165,155,173c0,4,20,27,45,51c24,24,45,47,45,51s26,35,58,68c31,32,76,80,99,106
		c23,27,64,72,92,102s51,58,51,63c0,7,36,46,165,180c25,26,45,51,45,55c0,5,15,22,33,38c18,17,40,42,50,55c19,28,98,116,170,190
		c26,26,47,51,47,55s23,30,50,58c28,28,50,54,50,58c0,6,20,28,155,171c25,26,45,50,45,54s23,29,50,56c28,27,50,53,50,58
		c0,9,47,59,80,84c19,15,40,51,40,71c0,8,9,23,20,32c11,10,20,23,20,30s9,17,20,23s20,17,20,25s9,19,20,25s20,17,20,25s6,18,13,22
		s21,21,31,38c21,32,32,47,59,76c9,10,17,23,17,29c0,5,9,15,20,22s20,17,20,23c0,5,16,25,35,44s35,38,35,43s25,33,55,63
		c30,29,55,57,55,61s18,26,39,48c120,124,137,146,112,146c-5,0-11,10-13,23l-3,22l-490,3c-478,2-656-5-663-27c-2-6-8-11-14-11
		c-12,0-78-64-78-75c0-4-38-45-85-91s-85-87-85-91c0-3-17-23-37-44c-21-21-53-54-72-73c-19-20-38-36-42-36c-5,0-9-6-9-14
		c0-7-22-36-50-64c-27-28-50-54-50-57c0-4-25-31-55-60c-30-30-55-58-55-62c0-5-22-30-50-56c-27-26-50-51-50-56c0-7-78-94-175-192
		c-25-25-45-50-45-54c0-5-25-33-55-62c-30-30-55-57-55-62c0-4-10-17-22-28c-34-31-78-80-78-88c0-3-20-27-45-53
		c-128-133-165-173-165-180c0-4-8-15-17-23c-10-9-40-42-68-73c-27-31-69-77-92-101c-24-24-43-48-43-54s-8-15-18-20
		c-24-13-46,5-62,52c-8,20-18,37-22,37c-5,0-15,18-24,40s-20,40-24,40s-13,14-19,30c-5,17-14,30-20,30c-5,0-12,13-16,30
		c-4,16-14,34-23,40c-10,6-12,10-4,10c7,0,17,11,22,25s13,25,17,25c5,0,14,14,21,30c17,37,37,62,130,157c39,42,72,78,72,82
		c0,7,100,115,215,232c36,37,65,70,65,73c0,4,34,41,75,83c41,41,75,78,75,83c0,9,111,120,120,120c4,0,13,12,21,27s42,55,77,89
		c34,34,62,65,62,68c0,4,34,41,75,83c41,41,75,78,75,82s10,17,23,28c12,12,37,37,56,57s38,36,42,36c5,0,9,6,9,13c0,8,29,43,64,79
		c70,72,86,96,86,127c0,16,6,21,26,21c18,0,43,18,87,64c34,35,73,67,87,71c13,4,30,14,37,21s33,16,58,20c25,3,45,10,45,15
		s88,9,195,9c123,0,195-4,195-10c0-5,18-10,40-10s40,5,40,10c0,6,135,10,385,10s385-4,385-10s53-10,140-10s140,4,140,10s11,10,23,10
		c33,0,112,25,132,41c17,14,115,111,141,140c8,9,14,21,14,28c0,6,6,14,14,17s16,14,19,25c5,20-5,20-1036,17c-821-2-1041-6-1045-15
		c-2-7-10-13-19-13c-15,0-35-21-193-190c-47-50-122-129-167-176c-46-47-83-88-83-91c0-4-38-45-85-91s-85-87-85-92s-34-42-75-83
		c-41-40-75-77-75-80c0-4-36-43-80-86c-44-44-80-83-80-87s-36-43-80-86c-44-44-80-82-80-87c0-4-34-43-75-86c-42-44-110-117-153-163
		c-42-46-108-117-147-157c-38-40-81-88-95-106c-29-38-111-119-120-119c-4,0-15,20-26,45c-10,25-21,45-25,45s-12,14-19,30
		c-7,17-16,30-19,30c-4,0-13,16-21,35s-17,35-21,35c-3,0-12,14-19,30c-7,17-15,30-19,30s-15,20-25,45c-11,25-22,45-26,45
		s-13,15-21,33c-7,17-19,36-26,40s-13,14-13,22c0,7-6,20-13,27c-15,15-47,81-47,97c0,6-5,11-10,11c-6,0-16,12-23,28
		c-6,15-17,30-24,35c-6,4-14,21-18,37c-4,17-11,30-16,30c-6,0-15,13-20,29c-6,16-16,32-24,35c-7,2-16,18-20,35s-12,34-19,38
		c-7,5-18,23-25,41c-8,17-17,32-21,32c-5,0-14,16-20,35s-15,35-20,35c-4,0-15,18-24,40s-20,40-25,40s-11,10-15,23c-3,13-15,34-26,47
		s-20,29-20,36s-6,17-13,21s-19,23-26,41c-8,17-17,32-21,32s-15,20-26,45c-10,25-21,45-25,45s-12,14-18,30c-5,17-14,30-20,30
		c-5,0-12,13-16,30c-4,16-12,33-18,37c-7,5-18,20-24,36c-7,15-17,27-23,27c-5,0-10,5-10,11c0,48-103,179-153,195c-12,4-24,10-27,14
		C4514,6835,4267,6846,4158,6828z M8243,5974c26-3,47-10,47-16c0-5-20-29-45-54c-25-24-45-48-45-53s-8-17-17-27c-10-10-19-21-19-26
		c-1-4-2-12-3-18c0-5-17-26-36-46c-19-19-35-39-35-43c0-8-45-64-77-96c-13-12-23-26-23-30s-9-17-20-29c-45-49-80-92-80-99
		c0-4-13-21-30-37c-16-16-30-34-30-40c0-5-9-15-20-22s-20-17-20-23c0-10-56-74-145-166c-25-25-45-50-45-54c0-5-26-34-58-64
		c-31-31-63-67-70-81s-26-34-42-45s-35-30-42-43s-38-52-70-86c-32-33-80-85-108-114c-27-30-50-60-50-68s-4-14-8-14
		c-11,0-102-89-102-100c0-5-22-30-50-57c-27-26-50-52-50-56c0-5-27-34-60-66s-60-62-60-66c0-5-25-33-55-62c-30-30-55-57-55-62
		c0-4-22-30-50-58c-27-28-50-53-50-57c0-3-27-33-60-65c-33-33-60-63-60-67s-22-28-49-54c-48-46-50-47-55-23c-4,13-15,32-26,43
		s-20,26-20,34s-6,16-14,19c-7,3-16,17-20,32s-16,36-26,48c-11,11-20,27-20,34s-3,13-8,13c-4,0-15,19-25,41c-10,23-25,48-34,57
		c-14,14-14,17,1,27c9,7,16,16,16,22c0,10,61,74,129,135c22,21,41,42,41,47c0,6,43,53,95,105s95,97,95,100c0,4,37,45,83,91
		c45,47,105,111,132,141c28,31,60,66,73,77c12,11,22,24,22,29c0,4,27,34,60,65c33,32,60,62,60,66c0,5,19,28,43,52
		c61,64,131,144,136,157c2,6,21,27,42,47c22,19,39,39,39,43c0,7,6,15,76,92c19,21,40,48,46,60c6,11,19,27,30,34c10,7,18,17,18,22
		c0,9,5,16,75,93c19,21,35,43,35,47c0,5,8,15,18,22c11,7,25,24,32,38s22,34,32,45c56,59,88,96,88,103c0,14,50,53,81,64
		c16,5,29,13,29,18c0,8,90,28,155,34C8029,5988,8169,5983,8243,5974z"/>
	<path class="st0" d="M4265,6019c-4-17-13-33-20-35c-8-3-18-19-24-35c-5-16-14-29-20-29c-5,0-12-13-16-30c-4-16-12-33-18-37
		c-7-5-18-20-24-35c-7-16-17-28-23-28c-5,0-10-5-10-11c0-16-32-82-47-97c-7-7-13-20-13-27c0-8-6-18-13-22s-19-23-26-40
		c-8-18-17-33-21-33s-15-20-26-45c-10-25-21-45-25-45s-12-13-19-30c-7-16-16-30-19-30c-4,0-13-16-21-35s-17-35-21-35s-12-13-18-30
		c-5-16-14-30-20-30c-5,0-12-13-16-29c-3-15-14-37-23-47c-9-11-24-32-32-49c-8-16-17-32-20-35s-12-18-20-35c-8-16-23-39-32-49
		c-10-11-18-26-18-33s-3-13-7-13c-5,0-16-20-26-45c-11-25-22-45-26-45s-13-16-21-35s-17-35-21-35c-3,0-12-13-19-30
		c-7-16-15-30-19-30s-15-20-25-45c-11-25-23-45-27-45s-13-16-20-35s-17-35-21-35s-8-6-8-13s-8-22-17-33c-10-10-25-32-33-49
		c-8-16-17-32-20-35s-14-23-25-45s-25-43-32-48c-6-4-14-21-18-37c-4-17-11-30-16-30c-6,0-15-13-20-30c-6-16-14-30-18-30
		c-3,0-12-14-20-32c-8-17-31-56-51-87c-21-31-40-66-44-78c-4-13-11-23-16-23s-14-16-21-35s-16-35-21-35c-4,0-16-19-27-42
		c-12-24-30-56-41-73c-11-16-27-45-37-62c-9-18-20-33-24-33s-13-17-20-37c-6-21-20-46-30-56c-11-10-19-24-19-33c0-8-6-17-14-20
		s-18-19-21-35c-4-16-12-32-18-36c-7-5-18-20-24-35c-7-16-17-28-23-28c-5,0-10-5-10-11c0-16-32-82-47-97c-7-7-13-20-13-27
		c0-8-6-18-13-22s-19-23-26-40c-8-18-17-33-21-33s-15-20-26-45c-10-25-21-45-25-45s-12-13-19-30c-7-16-16-30-19-30c-4,0-13-16-21-35
		s-17-35-21-35s-12-13-18-30c-5-16-14-30-20-30c-5,0-12-13-16-29c-3-15-14-37-24-47c-9-11-24-34-31-51c-8-18-18-33-22-33
		c-5,0-8-6-8-13s-8-22-17-33c-10-10-25-32-33-49c-8-16-17-32-20-35s-14-24-24-47c-11-24-22-43-26-43c-3,0-12-16-20-35s-17-35-21-35
		c-3,0-12-13-19-30c-7-16-15-30-19-30s-15-20-25-45c-11-25-23-45-27-45s-13-16-20-35s-16-35-20-35s-12-13-19-30c-7-16-16-30-19-30
		c-4,0-13-16-21-35s-16-35-19-35s-15-19-26-43c-11-23-25-45-32-50c-6-4-14-21-18-37c-4-17-11-30-16-30s-15-12-22-28
		c-6-15-17-31-23-37c-7-5-17-27-24-47c-6-21-15-38-20-38c-4,0-13-15-21-32c-7-18-19-37-26-41s-13-14-13-21s-9-23-20-36s-23-34-26-47
		c-4-13-10-23-15-23s-16-18-25-40s-20-40-24-40c-5,0-14-16-20-35s-15-35-20-35s-14-16-21-35s-17-35-21-35c-5,0-15-18-24-40
		s-20-40-24-40s-13-13-19-30c-5-16-14-30-20-30c-5,0-12-14-16-31s-13-33-21-36s-19-23-25-44c-7-21-16-39-21-39c-4,0-15-18-24-40
		s-20-40-24-40s-13-13-19-30c-5-16-14-30-18-30c-5,0-15-16-22-35s-16-35-21-35c-4,0-13-13-19-30c-5-16-14-30-19-30s-15-18-22-41
		c-8-23-19-43-26-46c-7-2-15-15-18-27s-15-33-26-46s-20-29-20-36s-6-17-13-21s-21-27-31-50c-11-24-22-43-26-43c-3,0-12-16-20-35
		s-17-35-22-35c-4,0-8-7-8-15s-9-24-20-35s-22-31-26-45c-3-14-11-29-18-33c-6-4-20-26-31-49c-11-24-23-43-26-43s-11-16-19-35
		s-17-35-22-35c-4,0-8-5-8-10c0-7,173-10,539-8l539,3l35,37c20,21,39,47,42,58s10,20,15,20c4,0,13,14,19,30c5,17,14,30,19,30
		c6,0,12,10,16,23c3,13,15,34,26,47s20,29,20,36s6,17,13,21s21,27,31,51c11,23,22,42,26,42c5,0,10,10,14,23c3,13,15,34,26,47
		s20,29,20,36s6,17,13,21s21,27,31,51c11,23,22,42,26,42c3,0,12,16,20,35s17,35,22,35c4,0,8,7,8,15s9,24,20,35s22,31,26,45
		c3,14,12,29,18,33c7,4,18,23,26,42c7,19,18,40,25,45c6,6,17,25,24,43c7,17,17,32,21,32c5,0,14,16,20,35s15,35,20,35
		c4,0,13,15,21,33c7,17,15,34,19,37c3,3,14,24,24,48c11,23,22,42,26,42c3,0,12,16,19,35s16,35,21,35s12,10,16,22c8,25,57,78,73,78
		c5,0,14,8,20,18c9,16,102,17,1690,20c1481,2,1681,4,1681,17c0,8-4,15-9,15s-17,20-28,45c-10,25-21,45-24,45c-4,0-12,14-19,30
		c-7,17-16,30-19,30c-4,0-13,16-21,35s-17,35-21,35s-12,14-18,30c-5,17-14,30-20,30c-5,0-12,13-16,29c-3,15-15,38-25,49
		c-11,11-22,32-26,47s-13,29-20,32c-8,3-14,11-14,19s-8,22-19,33c-10,10-24,35-31,55c-6,20-15,36-20,36c-4,0-15,18-24,40
		s-20,40-24,40c-5,0-15,18-22,39c-7,22-18,42-25,45c-7,2-15,16-19,31s-15,36-26,47c-10,11-22,34-25,49c-4,16-11,29-16,29
		c-6,0-15,14-20,30c-6,17-14,30-18,30s-13,16-21,35s-17,35-21,35c-3,0-12,14-19,30c-7,17-15,30-19,30c-3,0-14,20-24,45
		c-11,25-22,45-26,45s-13,16-21,35s-17,35-21,35s-12,14-18,30c-5,17-15,30-20,30c-6,0-11,5-11,11c0,16-32,82-47,97c-7,7-13,20-13,27
		c0,8-6,18-13,22s-19,23-26,41c-8,17-17,32-21,32c-5,0-14,16-20,35s-15,35-20,35s-16,21-26,47s-26,55-36,65s-18,24-18,32
		s-6,16-14,19c-7,3-16,17-20,32s-15,36-26,47c-10,11-22,34-25,49c-4,16-11,29-16,29c-6,0-15,14-20,30c-6,17-14,30-18,30
		s-13,16-21,35s-17,35-21,35c-3,0-12,14-19,30c-7,17-16,30-20,30c-5,0-11,13-15,29c-3,15-14,37-24,47c-9,11-24,34-31,52
		c-8,17-18,32-22,32c-5,0-8,7-8,15s-9,24-20,35s-22,31-26,46c-4,14-12,28-19,30c-7,3-18,23-26,46c-7,22-18,42-25,45
		c-6,2-17,22-24,44c-7,21-17,39-22,39s-14,14-19,30c-6,17-15,30-19,30c-5,0-16,21-26,48c-10,26-24,51-31,55s-13,14-13,22
		s-9,22-19,32c-11,10-22,30-26,46c-4,15-11,27-15,27s-13,14-20,30c-7,17-15,30-19,30s-15,20-25,45c-11,25-22,45-26,45
		c-3,0-12,16-20,35s-17,35-21,35c-3,0-12,14-19,30c-17,40-36,38-50-5c-6-19-15-35-20-35c-4,0-13-15-21-32c-7-18-18-36-25-40
		c-6-4-15-19-18-33c-4-14-15-34-26-45s-20-27-20-35s-4-15-8-15s-16-20-26-44c-10-25-24-47-31-50c-7-2-16-18-20-35s-11-31-16-31
		c-6,0-15-13-20-30c-6-16-15-30-19-30c-5,0-16-20-26-45c-9-25-20-45-24-45s-13-15-21-32c-7-18-19-37-26-41s-13-14-13-21s-9-23-20-36
		s-23-34-26-47c-4-13-10-23-15-23s-9-5-9-11s-13-30-29-54s-32-53-36-65s-16-31-26-41s-19-25-19-33s-6-16-14-19c-7-3-17-18-21-34
		c-3-15-10-30-13-33c-11-8-70-107-77-129c-3-12-10-21-15-21s-14-16-21-35s-16-35-21-35c-4,0-16-19-27-42c-12-24-30-56-41-73
		c-11-16-28-46-37-65c-10-19-23-38-30-43c-6-4-14-21-18-37c-4-17-10-30-14-30c-7,0-32-42-69-115c-9-16-21-33-28-38c-7-4-15-21-19-37
		c-4-17-11-30-15-30c-5,0-18-19-29-42c-12-24-30-56-41-73c-11-16-28-46-37-65c-10-19-24-39-30-43c-7-4-13-14-13-22c0-7-6-20-12-27
		c-7-7-20-26-28-43c-8-16-31-56-52-88s-41-69-44-83c-3-13-10-24-16-24c-5,0-16-16-24-35s-18-35-23-35s-12-14-16-31s-13-33-21-36
		c-11-4-11-7,1-19c11-12,171-14,1029-14c700,0,1016,3,1016,10c0,27-33,140-41,140c-5,0-9,6-9,13c0,26-26,67-50,79c-14,7-28,17-32,23
		c-5,6-262,12-722,15l-715,5l17,35c9,19,22,41,29,48s13,20,13,28s6,17,14,20s17,16,20,28s15,33,26,46s20,29,20,36s6,17,13,21
		s21,27,31,51c11,23,22,42,27,42c4,0,10,13,14,30c4,16,12,33,18,37c7,5,18,20,24,36c7,15,17,27,23,27c5,0,10,5,10,11
		c0,17,33,82,52,103c10,11,18,26,18,33s4,13,9,13s11,10,15,23c3,13,15,34,26,47s20,29,20,36s6,17,13,21s21,27,31,51
		c11,23,22,42,26,42c3,0,12,16,20,35s17,35,21,35c3,0,12,14,19,30c7,17,16,30,20,30c5,0,11,13,15,30c4,16,12,33,19,37
		c7,5,21,26,32,48c10,22,20,42,23,45c4,3,13,19,21,35c8,17,23,39,33,49c9,11,17,26,17,33s3,13,8,13c4,0,15,20,25,45
		c11,25,22,45,26,45s13,16,21,35s17,35,21,35c3,0,12,14,19,30c7,17,16,30,19,30c4,0,13,16,21,35s17,35,20,35s14,18,24,40
		c21,48,32,50,41,9c4-17,13-33,20-35c6-3,18-23,25-45c7-21,17-39,22-39c4,0,15-18,24-40s20-40,24-40c5,0,14-16,20-35s15-35,20-35
		c4,0,13-15,21-32c7-18,19-37,26-41s13-14,13-22c0-7,6-20,13-27c15-15,47-81,47-97c0-6,5-11,11-11c5,0,15-13,20-29c6-16,16-32,24-35
		c7-2,16-18,20-35s10-31,14-31c5,0,16-19,27-42c10-24,24-47,31-51s13-14,13-22c0-7,6-20,13-27s20-28,28-45c7-18,17-33,20-33
		c4,0,12-13,19-30c7-16,16-30,21-30s9-5,9-11c0-17,33-82,52-103c10-11,18-26,18-33s4-13,8-13s14-16,21-35s16-35,21-35
		c4,0,13-13,19-30c5-16,14-30,19-30s15-18,22-40c8-23,19-44,25-48s17-22,24-39c8-18,17-33,22-33c4,0,14-18,20-40c7-22,16-40,21-40
		s16-16,24-35s18-35,23-35s12-14,16-31s13-33,20-35c6-3,18-23,25-45c7-21,17-39,22-39s14-14,19-30c6-16,15-30,19-30c5,0,16-20,26-45
		c9-25,20-45,24-45s13-15,21-33c7-17,19-36,26-40s13-14,13-22c0-7,6-20,13-27c15-15,47-81,47-97c0-6,5-11,11-11c5,0,15-13,20-30
		c6-16,14-30,18-30s13-16,21-35s17-35,21-35s11-9,14-20s12-26,18-32c11-12,47-83,47-93c0-3-675-5-1500-5c-993,0-1500-3-1500-10
		c0-5-9-10-19-10c-11,0-37-16-58-35s-41-35-44-35s-11-16-19-35s-17-35-22-35c-4,0-8-7-8-15s-8-23-18-33s-26-39-36-65s-21-47-26-47
		s-14-16-20-35s-15-35-20-35s-14-16-21-35s-17-35-21-35s-8-6-8-13s-8-22-18-33c-19-21-52-86-52-103c0-6-4-11-9-11s-14-13-21-30
		c-7-16-16-30-19-30c-4,0-13-16-21-35s-17-35-20-35c-4,0-15-20-26-45c-10-25-21-45-25-45s-12-13-18-30c-5-16-14-30-20-30
		c-5,0-12-14-16-31s-13-33-20-36c-8-2-19-21-26-41c-6-21-17-40-24-44c-6-4-17-25-25-48c-7-22-16-40-20-40s-13-13-20-30
		c-7-16-16-30-20-30s-12-18-19-40c-6-22-16-40-21-40s-17-16-26-36c-20-42-56-84-72-84c-6,0-15-8-21-17c-9-16-32-18-233-21
		c-123-1-218,1-213,5c6,5,17,22,25,38c8,17,17,32,21,35c3,3,13,23,23,45c11,22,25,43,32,48c7,4,15,21,19,37c4,17,10,30,15,30
		c4,0,13,14,20,30c7,17,16,30,19,30c4,0,13,16,21,35s17,35,20,35c4,0,15,19,26,43c10,23,24,46,31,50s13,14,13,22c0,7,6,20,13,27
		s20,28,28,45c7,18,17,33,20,33s14,19,25,43c10,23,24,45,30,49c7,4,15,19,18,33c4,14,15,34,26,45s20,27,20,35s4,15,8,15
		c5,0,14,16,22,35s17,35,20,35c4,0,15,19,26,43c10,23,24,46,31,50s13,14,13,21s9,23,20,36s23,34,26,47c4,13,9,23,14,23
		c4,0,15,19,26,43c10,23,24,46,31,50s13,14,13,21s9,23,20,36s23,34,26,47c4,13,10,23,15,23s9,6,9,13s8,22,18,33c19,21,52,86,52,103
		c0,6,5,11,11,11c5,0,15,13,20,29c6,16,16,32,24,35c7,2,16,18,20,35s10,31,14,31c5,0,16,19,27,43c10,23,24,46,31,50s13,14,13,21
		s9,23,20,36s23,34,26,46s12,25,20,28s14,12,14,20s6,21,13,28c15,15,47,81,47,97c0,6,5,11,10,11c6,0,16,12,23,28c6,15,17,30,23,34
		c7,4,15,19,18,33c4,14,15,34,26,45s20,27,20,35s4,15,8,15s16,20,26,45c11,25,23,45,27,45s13,16,20,35s17,35,22,35c4,0,13,14,18,30
		c6,17,15,30,19,30c5,0,16,20,26,45c9,25,20,45,25,45c4,0,13,16,20,35s17,35,22,35c4,0,13,14,18,30c6,17,14,30,19,30
		c4,0,14,15,21,33c7,17,18,37,24,42c7,6,18,26,25,45c8,19,19,38,26,43c7,4,15,20,19,36c3,16,13,32,21,35s14,12,14,20c0,9,8,23,19,33
		c10,10,24,35,30,56c7,20,16,37,21,37s14,16,21,35s17,35,22,35c4,0,13,14,18,30c6,17,14,30,19,30c4,0,14,15,21,33c7,17,18,37,24,42
		c7,6,18,26,25,45c8,19,19,38,26,42c6,4,15,19,18,33c4,14,15,34,26,45s20,26,20,34s6,16,14,19s17,20,21,37s13,34,21,37s19,23,25,44
		c7,21,16,39,21,39s14,14,19,30c6,17,15,30,19,30c5,0,14,16,21,35s17,35,21,35c5,0,15,18,24,40s20,40,24,40c5,0,14,16,20,35
		s15,35,20,35s14,16,21,35s17,35,21,35c5,0,15,18,24,40s20,40,24,40s13,14,19,30c5,17,14,30,19,30s15,18,22,39c7,22,19,42,25,45
		c7,2,16,18,20,35s11,31,16,31s15,16,23,35s19,35,25,35c5,0,12,14,16,31s13,33,20,35c6,3,18,23,25,45c7,21,17,39,22,39s14,14,19,30
		c6,17,15,30,19,30s15,18,24,40s20,40,24,40c5,0,15,18,22,39c7,22,19,42,25,45c7,2,16,18,20,35s11,31,16,31c6,0,17,16,25,35
		s18,35,23,35s12,14,16,31s13,33,21,36s19,23,25,44c7,21,16,39,21,39s14,14,19,30c6,17,15,30,19,30c5,0,14,16,21,35s18,35,24,35
		s17-16,25-35s17-35,21-35c3,0,12-13,19-30c7-16,15-30,19-30s15-20,25-45c11-25,22-45,26-45c3,0,12-16,20-35s17-35,22-35
		c4,0,8-6,8-13s8-22,18-33c10-10,25-34,32-51c8-18,17-33,20-33s14-20,24-45c11-25,22-45,26-45c3,0,12-16,20-35s17-35,21-35
		c3,0,12-13,19-30c7-16,15-30,19-30s15-20,25-45c11-25,23-45,27-45s13-16,20-35s16-35,20-35s12-13,19-30c7-16,16-30,19-30
		c4,0,13-16,21-35s16-35,19-35s15-19,26-43c11-23,22-44,25-47s12-18,20-35c8-16,23-39,33-49c9-11,17-26,17-33s4-13,8-13
		c5,0,14-16,22-35s17-35,21-35s15-20,26-45c10-25,21-45,24-45c4,0,12-13,19-30c7-16,16-30,19-30c4,0,13-16,21-35s17-35,21-35
		s15-20,26-45c10-25,21-45,26-45c4,0,7-6,7-13s8-22,18-33c10-10,25-34,32-51c8-18,18-33,22-33c5,0,8-6,8-13s9-23,20-35s20-24,20-28
		c0-11,34-79,46-92c7-6,16-21,19-32s10-20,14-20s13-16,21-35s17-35,20-35c4,0,15-20,26-45c10-25,21-45,25-45s12-13,19-30
		c7-16,16-30,19-30c4,0,13-16,21-35s17-35,21-35c3,0,12-13,19-30c7-16,16-30,21-30s9-5,9-11c0-17,33-82,52-103c10-11,18-26,18-33
		s3-13,8-13c4,0,14-15,22-32c7-18,22-41,31-52c10-10,21-32,24-47c4-16,10-29,15-29c4,0,13-13,20-30c7-16,16-30,19-30
		c4,0,13-16,21-35s17-35,21-35c3,0,12-13,19-30c7-16,15-30,19-30c3,0,14-20,24-45c11-25,22-45,26-45s13-16,21-35s17-35,22-35
		c4,0,8-6,8-13s9-23,20-34c10-12,22-33,26-47c3-15,11-30,18-34c6-4,20-25,31-47s22-42,25-45s12-18,20-35c8-16,21-36,28-43
		c6-7,12-20,12-27c0-8,6-18,13-22s21-27,31-50c11-24,22-43,26-43c3,0,12-16,20-35s17-35,21-35s12-13,18-30c5-16,14-30,20-30
		c5,0,12-14,16-31s13-33,20-36c8-2,19-21,26-41c6-21,17-41,23-47c7-5,18-25,25-42c7-18,17-33,21-33c5,0,14-16,20-35s15-35,20-35
		c4,0,15-18,24-40s20-40,24-40c5,0,15-18,22-39c7-22,18-42,25-45c7-2,15-16,19-30c4-15,15-35,26-46s20-27,20-35s4-15,8-15
		s16-20,26-45c11-25,22-45,26-45c3,0,12-16,20-35s17-35,21-35c3,0,12-13,19-30c7-16,15-30,19-30c3,0,14-20,24-45c11-25,23-45,27-45
		c5,0,11-14,15-31s13-33,20-35c6-3,18-23,25-45c7-21,17-39,22-39s14-13,19-30c6-16,14-30,18-30c3,0,15-17,26-37c18-34,43-63,90-101
		c8-7,38-18,65-25c28-6,50-15,50-19c0-5,25-8,55-8s55,5,55,10c0,6,16,10,36,10c32,0,35,2,28,23c-4,12-9,24-13,27c-3,3-13,19-21,35
		c-8,17-23,38-32,49c-9,10-20,32-23,47c-4,16-11,29-16,29c-6,0-15,14-20,30c-6,17-14,30-18,30s-13,16-21,35s-17,35-20,35
		c-4,0-15,19-26,43c-10,23-24,46-31,50s-13,14-13,21s-9,23-20,36s-23,34-26,47c-4,13-10,23-15,23s-9,6-9,13s-8,22-18,33
		c-19,21-52,86-52,103c0,6-5,11-10,11c-6,0-16,12-23,28c-6,15-17,30-24,35c-6,4-14,21-18,37c-4,17-10,30-15,30c-4,0-13,14-20,30
		c-7,17-15,30-19,30s-15,20-25,45c-11,25-23,45-27,45s-13,16-20,35s-17,35-22,35c-4,0-13,14-18,30c-6,17-14,30-18,30s-15,20-25,45
		c-11,25-23,45-27,45s-13,16-20,35s-17,35-22,35c-4,0-13,14-18,30c-6,17-14,30-19,30c-4,0-13,15-21,33c-7,17-16,34-19,37
		s-14,23-24,45c-11,22-25,43-32,48c-7,4-15,21-19,37c-4,17-11,30-16,30c-6,0-15,14-20,30c-6,17-15,30-19,30c-5,0-16,20-26,45
		c-9,25-20,45-25,45c-4,0-13,16-20,35s-17,35-22,35c-4,0-13,14-18,30c-6,17-14,30-19,30c-4,0-13,15-21,33c-7,17-15,34-19,37
		c-3,3-14,23-25,45s-25,43-32,48c-6,4-14,21-18,37c-4,17-11,30-16,30s-15,12-22,28c-6,15-17,32-23,37c-7,6-17,27-24,48
		c-6,20-15,37-20,37s-14,16-21,35s-17,35-22,35c-4,0-13,14-18,30c-6,17-14,30-19,30c-4,0-13,15-21,33c-7,17-18,35-24,39
		s-17,25-25,48c-7,22-17,40-22,40s-14,14-19,30c-6,17-15,30-19,30c-5,0-14,16-21,35s-17,35-22,35c-4,0-13,14-18,30
		c-6,17-15,30-19,30c-5,0-16,21-26,48c-10,26-24,51-31,55s-13,14-13,22s-9,22-19,32c-11,10-22,30-26,46c-4,15-11,27-16,27
		s-16,18-25,40s-20,40-24,40c-5,0-14,16-20,35s-15,35-20,35s-14,16-21,35s-17,35-22,35c-4,0-13,14-18,30c-6,17-15,30-19,30
		s-15,18-24,40s-20,40-24,40c-5,0-15,18-22,39c-7,22-19,42-25,45c-7,2-16,18-20,35s-11,31-16,31c-6,0-17,16-25,35s-18,35-23,35
		s-12,14-16,31s-13,33-20,35c-6,3-18,23-25,45c-7,21-17,39-22,39s-14,14-19,30c-6,17-15,30-19,30s-15,18-24,40s-19,40-24,40
		c-4,0-14,16-21,35s-16,35-21,35s-14,16-20,35s-15,35-20,35c-4,0-15,18-24,40s-20,40-25,40s-12,14-16,31s-13,33-20,35
		c-8,3-18,19-24,35c-5,16-14,29-19,29s-14,18-21,39c-6,21-17,41-25,44s-17,19-21,36s-12,34-19,38c-7,5-18,23-25,41
		c-8,17-17,32-21,32c-5,0-13,14-19,30c-5,17-14,30-19,30s-15,18-22,40s-17,40-22,40c-4,0-15,18-24,40s-20,40-24,40s-13,14-19,30
		c-5,17-14,30-18,30c-5,0-15,16-22,35s-16,35-21,35s-14,17-21,38c-6,20-20,45-30,55c-11,10-19,24-19,33c0,8-6,17-14,20s-18,19-21,36
		c-4,16-13,32-21,35s-14,11-14,19s-8,22-18,32s-26,39-36,65s-21,47-26,47c-4,0-13,14-19,30c-5,17-14,30-18,30c-5,0-15,16-22,35
		C4296,6058,4274,6060,4265,6019z"/>
</g>
</svg>
